{
	"asset":{
		"generator":"Khronos glTF Blender I/O v4.3.47",
		"version":"2.0"
	},
	"scene":0,
	"scenes":[
		{
			"name":"Scene",
			"nodes":[
				0,
				1
			]
		}
	],
	"nodes":[
		{
			"mesh":0,
			"name":"BoxingGloveL"
		},
		{
			"mesh":1,
			"name":"BoxingGloveR"
		}
	],
	"materials":[
		{
			"doubleSided":true,
			"name":"Boxing Glove",
			"normalTexture":{
				"index":0,
				"scale":9.999999046325684
			},
			"pbrMetallicRoughness":{
				"baseColorTexture":{
					"index":1
				},
				"metallicFactor":0,
				"metallicRoughnessTexture":{
					"index":2
				}
			}
		}
	],
	"meshes":[
		{
			"name":"Boxingglove",
			"primitives":[
				{
					"attributes":{
						"POSITION":0,
						"NORMAL":1,
						"TEXCOORD_0":2
					},
					"indices":3,
					"material":0
				}
			]
		},
		{
			"name":"Boxingglove.001",
			"primitives":[
				{
					"attributes":{
						"POSITION":4,
						"NORMAL":5,
						"TEXCOORD_0":6
					},
					"indices":7,
					"material":0
				}
			]
		}
	],
	"textures":[
		{
			"sampler":0,
			"source":0
		},
		{
			"sampler":0,
			"source":1
		},
		{
			"sampler":0,
			"source":2
		}
	],
	"images":[
		{
			"mimeType":"image/png",
			"name":"BoxingGloveNormaltest2",
			"uri":"BoxingGloveNormaltest2.png"
		},
		{
			"mimeType":"image/png",
			"name":"BoxingGloveBasetest3",
			"uri":"BoxingGloveBasetest3.png"
		},
		{
			"mimeType":"image/png",
			"name":"BoxingGloveMetallictest1",
			"uri":"BoxingGloveMetallictest1.png"
		}
	],
	"accessors":[
		{
			"bufferView":0,
			"componentType":5126,
			"count":1649,
			"max":[
				9.870838165283203,
				8.623371124267578,
				8.611297607421875
			],
			"min":[
				1.5698602199554443,
				-0.6603989601135254,
				-7.519135475158691
			],
			"type":"VEC3"
		},
		{
			"bufferView":1,
			"componentType":5126,
			"count":1649,
			"type":"VEC3"
		},
		{
			"bufferView":2,
			"componentType":5126,
			"count":1649,
			"type":"VEC2"
		},
		{
			"bufferView":3,
			"componentType":5123,
			"count":8835,
			"type":"SCALAR"
		},
		{
			"bufferView":4,
			"componentType":5126,
			"count":1649,
			"max":[
				-2.7529361248016357,
				8.623371124267578,
				8.611297607421875
			],
			"min":[
				-11.053914070129395,
				-0.6603989601135254,
				-7.519135475158691
			],
			"type":"VEC3"
		},
		{
			"bufferView":5,
			"componentType":5126,
			"count":1649,
			"type":"VEC3"
		},
		{
			"bufferView":6,
			"componentType":5126,
			"count":1649,
			"type":"VEC2"
		},
		{
			"bufferView":7,
			"componentType":5123,
			"count":8835,
			"type":"SCALAR"
		}
	],
	"bufferViews":[
		{
			"buffer":0,
			"byteLength":19788,
			"byteOffset":0,
			"target":34962
		},
		{
			"buffer":0,
			"byteLength":19788,
			"byteOffset":19788,
			"target":34962
		},
		{
			"buffer":0,
			"byteLength":13192,
			"byteOffset":39576,
			"target":34962
		},
		{
			"buffer":0,
			"byteLength":17670,
			"byteOffset":52768,
			"target":34963
		},
		{
			"buffer":0,
			"byteLength":19788,
			"byteOffset":70440,
			"target":34962
		},
		{
			"buffer":0,
			"byteLength":19788,
			"byteOffset":90228,
			"target":34962
		},
		{
			"buffer":0,
			"byteLength":13192,
			"byteOffset":110016,
			"target":34962
		},
		{
			"buffer":0,
			"byteLength":17670,
			"byteOffset":123208,
			"target":34963
		}
	],
	"samplers":[
		{
			"magFilter":9729,
			"minFilter":9987
		}
	],
	"buffers":[
		{
			"byteLength":140880,
			"uri":"Boxing%20Gloves.bin"
		}
	]
}
