{
  "accessors": [
    {
      "bufferView": 1,
      "componentType": 5126,
      "count": 9362,
      "max": [
        0.8814659714698792,
        0.92500901222229,
        0.9503840208053589
      ],
      "min": [
        -0.8816009759902954,
        -0.8908360004425049,
        -0.945563018321991
      ],
      "type": "VEC3"
    },
    {
      "bufferView": 1,
      "byteOffset": 112344,
      "componentType": 5126,
      "count": 9362,
      "max": [
        0.9999038577079773,
        0.999999463558197,
        0.9999973773956299
      ],
      "min": [
        -0.9999038577079773,
        -0.9999666213989258,
        -0.9999994039535522
      ],
      "type": "VEC3"
    },
    {
      "bufferView": 0,
      "componentType": 5125,
      "count": 56220,
      "type": "SCALAR"
    }
  ],
  "asset": {
    "extras": {
      "author": "6thumbs (https://sketchfab.com/6thumbs)",
      "license": "CC-BY-4.0 (http://creativecommons.org/licenses/by/4.0/)",
      "source": "https://sketchfab.com/3d-models/boxing-headgear-fbx-9a43d1767d9e4296bdd0e8b51f80d20a",
      "title": "Boxing headgear fbx"
    },
    "generator": "Sketchfab-16.15.0",
    "version": "2.0"
  },
  "bufferViews": [
    {
      "buffer": 0,
      "byteLength": 224880,
      "name": "floatBufferViews",
      "target": 34963
    },
    {
      "buffer": 0,
      "byteLength": 224688,
      "byteOffset": 224880,
      "byteStride": 12,
      "name": "floatBufferViews",
      "target": 34962
    }
  ],
  "buffers": [
    {
      "byteLength": 449568,
      "uri": "scene.bin"
    }
  ],
  "materials": [
    {
      "doubleSided": true,
      "name": "CustomMaterial",
      "pbrMetallicRoughness": {
        "baseColorFactor": [
          0.5,
          0.5,
          0.5,
          1.0
        ],
        "metallicFactor": 0.8,
        "roughnessFactor": 0.5
      }
    }
  ],
  "meshes": [
    {
      "name": "model",
      "primitives": [
        {
          "attributes": {
            "NORMAL": 1,
            "POSITION": 0
          },
          "indices": 2,
          "material": 0,
          "mode": 4
        }
      ]
    }
  ],
  "nodes": [
    {
      "children": [
        1
      ],
      "matrix": [
        1.0,
        0.0,
        0.0,
        0.0,
        0.0,
        2.220446049250313e-16,
        -1.0,
        0.0,
        0.0,
        1.0,
        2.220446049250313e-16,
        0.0,
        0.0,
        0.0,
        0.0,
        1.0
      ],
      "name": "Sketchfab_model"
    },
    {
      "children": [
        2
      ],
      "name": "USDRoot"
    },
    {
      "children": [
        3
      ],
      "matrix": [
        1.0,
        0.0,
        0.0,
        0.0,
        0.0,
        7.549790126404332e-08,
        1.0,
        0.0,
        0.0,
        -1.0,
        7.549790126404332e-08,
        0.0,
        0.0,
        0.0,
        0.0,
        1.0
      ],
      "name": "model"
    },
    {
      "mesh": 0,
      "name": "model"
    }
  ],
  "scene": 0,
  "scenes": [
    {
      "name": "Sketchfab_Scene",
      "nodes": [
        0
      ]
    }
  ]
}
